<svg width="370" height="538" viewBox="0 0 370 538" fill="none" xmlns="http://www.w3.org/2000/svg">
<path d="M354.898 309.592L334.662 265.971C324.694 244.463 316.841 222.046 311.707 198.721L273.951 35.1396C273.045 31.8074 272.139 28.7781 270.931 26.0518C261.87 6.6644 240.123 -3.93808 219.282 0.90877C207.502 3.63512 197.233 10.9054 190.89 21.2049C184.547 31.5045 182.433 43.9245 185.151 55.7387L214.449 182.666C214.751 183.574 213.241 184.18 212.637 183.574L134.711 79.67C127.462 69.9763 116.588 63.6148 104.507 61.7973C92.4249 59.9797 80.3433 63.3119 70.678 70.5822C53.4617 83.6081 47.7229 106.934 56.7841 126.321C57.9923 129.047 59.8045 131.774 61.6168 134.5L113.568 203.87C114.172 204.779 113.568 206.294 112.36 205.991C103.6 204.476 94.2372 205.688 86.0821 209.626C74.9066 214.776 66.7515 223.864 62.5229 235.375C61.0127 239.313 60.1066 243.554 59.8045 247.492C59.5025 249.613 57.6902 251.127 55.576 250.521C41.6821 247.189 26.278 250.521 13.8943 261.73C12.3841 263.244 10.8739 264.759 9.36372 266.577C-0.905671 280.208 -2.71792 296.869 3.02086 311.713C3.02086 312.016 3.3229 312.622 3.3229 312.925L3.92698 314.136L34.7351 380.477L64.6372 444.698C91.8209 503.163 149.511 537.394 209.919 537.394C232.572 537.394 255.527 532.547 277.274 522.248C357.617 485.593 392.351 389.868 354.898 309.592ZM202.972 51.8007C201.462 44.5304 202.67 37.2601 206.294 30.8986C210.221 24.5371 216.262 20.2962 223.511 18.7815C236.196 15.7522 249.184 22.1137 254.621 33.9279C255.527 35.7455 256.131 37.2601 256.433 39.3806L292.074 194.48C292.376 197.206 290.564 196.6 290.262 196.297C289.356 195.994 288.449 195.388 287.241 195.086C275.764 190.845 263.38 191.45 252.507 196.6L242.539 201.144C240.123 202.356 237.405 200.841 236.8 198.418L202.972 51.8007ZM76.4168 123.898C74.3025 121.171 73.0943 118.445 72.1882 115.718C69.1678 105.722 71.8862 94.5135 79.4372 87.2432C85.78 81.4876 93.9351 78.7612 102.09 79.9729C109.339 80.8817 115.682 84.8198 120.213 90.5754L209.617 209.323C211.731 212.05 210.825 216.291 207.502 217.805L169.747 235.375C165.821 237.193 160.988 235.981 158.27 232.346L76.4168 123.898ZM78.5311 246.886C80.0413 237.495 85.78 229.922 93.9351 226.287C102.392 222.349 112.36 222.955 120.817 228.408C125.347 231.134 128.67 235.678 130.784 240.525L135.013 249.31C135.617 250.521 135.013 252.036 133.805 252.642L117.192 260.215C113.87 261.73 110.849 264.153 109.037 267.485C106.017 272.635 105.715 278.997 108.131 284.146L112.964 294.143C121.421 312.319 138.033 325.042 157.062 328.98C154.343 332.918 150.719 336.25 146.188 338.37C138.335 342.006 129.274 341.703 121.421 337.462C115.984 334.432 111.756 329.586 109.339 324.133L81.2494 263.547C78.5311 258.397 77.6249 252.642 78.5311 246.886ZM64.0331 386.233C58.5964 383.507 54.0658 378.963 51.6494 373.51L20.5392 307.169C17.5188 300.504 17.2168 292.931 19.6331 286.267C22.0494 279.3 27.1841 273.847 33.829 270.818C37.4535 269 41.38 268.091 45.3066 268.091C55.576 268.091 65.5433 273.847 70.376 283.843L71.5841 286.267L101.486 350.185C104.507 356.849 104.809 364.422 102.392 371.087C99.976 378.054 94.8413 383.507 88.1964 386.536C80.3433 390.474 71.5841 390.171 64.0331 386.233ZM270.025 506.495C232.27 524.065 189.682 524.368 151.323 507.101C119.911 492.864 95.1433 467.115 80.6454 435.61L69.4698 411.376C68.5637 409.558 70.0739 407.135 72.1882 407.438C73.6984 407.741 75.2086 407.741 76.7188 407.741C83.3637 407.741 89.7066 406.226 96.0494 403.5C106.923 398.35 115.38 389.262 119.609 377.751C121.421 372.298 122.327 366.846 122.327 361.393C122.327 359.272 124.139 357.758 126.254 358.364C129.274 358.97 131.992 359.272 135.013 359.272C141.658 359.272 148 357.758 154.343 355.031C164.009 350.488 171.862 342.611 176.392 332.918C177.298 331.1 178.809 329.888 180.923 329.586C186.36 328.677 191.494 327.162 196.327 324.739L214.147 316.257C214.449 315.954 214.751 316.56 214.751 316.863C191.494 351.396 187.568 396.836 205.69 436.216C207.2 439.548 210.523 441.366 213.845 441.366C216.262 441.366 218.678 440.457 220.49 438.337C223.209 435.61 223.511 431.672 221.698 428.037C200.858 382.901 214.449 328.98 254.017 298.99C255.225 298.081 258.849 295.355 260.36 294.446C264.286 291.72 265.192 286.873 263.078 282.632C263.078 282.329 263.078 282.329 262.776 282.026C260.662 277.482 255.225 275.361 250.694 277.482L187.266 307.169C181.527 309.895 175.486 311.107 169.143 311.41C168.841 311.41 168.841 311.41 168.539 311.41C151.625 311.41 135.919 301.413 128.67 285.964L125.649 279.3C124.743 277.482 125.649 275.664 127.462 274.756L151.323 263.547L231.062 226.287L234.686 224.47L259.454 212.958C266.098 209.929 273.649 209.626 280.294 212.05C287.241 214.473 292.678 219.623 295.698 226.287L337.984 317.165C371.511 388.656 341.005 473.476 270.025 506.495Z" fill="#656565" fill-opacity="0.27"/>
</svg>
